<svg xmlns="http://www.w3.org/2000/svg" viewBox="0 0 200 200">
  <!-- QR Code pattern for wallet address 0x47d65daa4a24b60262eb3de244f934d535776f22 -->
  <rect width="200" height="200" fill="white"/>
  
  <!-- Corner squares -->
  <rect x="10" y="10" width="60" height="60" fill="black"/>
  <rect x="20" y="20" width="40" height="40" fill="white"/>
  <rect x="30" y="30" width="20" height="20" fill="black"/>
  
  <rect x="130" y="10" width="60" height="60" fill="black"/>
  <rect x="140" y="20" width="40" height="40" fill="white"/>
  <rect x="150" y="30" width="20" height="20" fill="black"/>
  
  <rect x="10" y="130" width="60" height="60" fill="black"/>
  <rect x="20" y="140" width="40" height="40" fill="white"/>
  <rect x="30" y="150" width="20" height="20" fill="black"/>
  
  <!-- Timing patterns -->
  <rect x="80" y="10" width="10" height="10" fill="black"/>
  <rect x="100" y="10" width="10" height="10" fill="black"/>
  <rect x="120" y="10" width="10" height="10" fill="black"/>
  
  <rect x="10" y="80" width="10" height="10" fill="black"/>
  <rect x="10" y="100" width="10" height="10" fill="black"/>
  <rect x="10" y="120" width="10" height="10" fill="black"/>
  
  <!-- Data modules (simplified pattern) -->
  <rect x="80" y="30" width="10" height="10" fill="black"/>
  <rect x="100" y="30" width="10" height="10" fill="black"/>
  <rect x="80" y="50" width="10" height="10" fill="black"/>
  <rect x="120" y="50" width="10" height="10" fill="black"/>
  <rect x="90" y="70" width="10" height="10" fill="black"/>
  <rect x="110" y="70" width="10" height="10" fill="black"/>
  
  <rect x="30" y="80" width="10" height="10" fill="black"/>
  <rect x="50" y="80" width="10" height="10" fill="black"/>
  <rect x="70" y="80" width="10" height="10" fill="black"/>
  <rect x="90" y="80" width="10" height="10" fill="black"/>
  <rect x="110" y="80" width="10" height="10" fill="black"/>
  <rect x="130" y="80" width="10" height="10" fill="black"/>
  <rect x="150" y="80" width="10" height="10" fill="black"/>
  <rect x="170" y="80" width="10" height="10" fill="black"/>
  
  <rect x="30" y="100" width="10" height="10" fill="black"/>
  <rect x="70" y="100" width="10" height="10" fill="black"/>
  <rect x="90" y="100" width="10" height="10" fill="black"/>
  <rect x="130" y="100" width="10" height="10" fill="black"/>
  <rect x="170" y="100" width="10" height="10" fill="black"/>
  
  <rect x="50" y="120" width="10" height="10" fill="black"/>
  <rect x="70" y="120" width="10" height="10" fill="black"/>
  <rect x="110" y="120" width="10" height="10" fill="black"/>
  <rect x="130" y="120" width="10" height="10" fill="black"/>
  <rect x="150" y="120" width="10" height="10" fill="black"/>
  
  <rect x="80" y="140" width="10" height="10" fill="black"/>
  <rect x="120" y="140" width="10" height="10" fill="black"/>
  <rect x="140" y="140" width="10" height="10" fill="black"/>
  <rect x="180" y="140" width="10" height="10" fill="black"/>
  
  <rect x="80" y="160" width="10" height="10" fill="black"/>
  <rect x="100" y="160" width="10" height="10" fill="black"/>
  <rect x="140" y="160" width="10" height="10" fill="black"/>
  <rect x="160" y="160" width="10" height="10" fill="black"/>
  <rect x="180" y="160" width="10" height="10" fill="black"/>
  
  <rect x="90" y="180" width="10" height="10" fill="black"/>
  <rect x="110" y="180" width="10" height="10" fill="black"/>
  <rect x="130" y="180" width="10" height="10" fill="black"/>
  <rect x="170" y="180" width="10" height="10" fill="black"/>
  
  <!-- Central alignment pattern -->
  <rect x="90" y="90" width="30" height="30" fill="black"/>
  <rect x="100" y="100" width="10" height="10" fill="white"/>
  <rect x="105" y="105" width="10" height="10" fill="black"/>
</svg>